<svg xmlns="http://www.w3.org/2000/svg" xmlns:xlink="http://www.w3.org/1999/xlink" width="512" height="512" viewBox="0 0 512 512">
  <defs>
    <linearGradient id="bg-grad" x1="46.512176312793784%" y1="99.87820251299121%" x2="53.487823687206216%" y2="0.12179748700878434%">
        <stop offset="0%" stop-color="#0d58e3"/>
        <stop offset="50%" stop-color="#805af2"/>
        <stop offset="100%" stop-color="#bf12de"/>
      </linearGradient>
    <clipPath id="canvas-clip">
      <rect width="512" height="512" rx="84" ry="84"/>
    </clipPath>
  </defs>
  <rect width="512" height="512" rx="84" ry="84" fill="url(#bg-grad)" stroke="#EF4444" stroke-width="4" clip-path="url(#canvas-clip)"/>
  <g clip-path="url(#canvas-clip)">
    <g transform="rotate(0, 256, 256)">
      <g transform="translate(28 26) scale(19.208333333333332 19.208333333333332) translate(0 0)"><g fill="none" stroke="#000000" stroke-linecap="round" stroke-linejoin="round" stroke-width="2"><path d="M3 7V5a2 2 0 0 1 2-2h2m10 0h2a2 2 0 0 1 2 2v2m0 10v2a2 2 0 0 1-2 2h-2M7 21H5a2 2 0 0 1-2-2v-2"/><circle cx="12" cy="12" r="3"/><path d="m16 16l-1.9-1.9"/></g></g><g transform="translate(28 27) scale(19.208333333333332 19.208333333333332) translate(0 0)"><g fill="none" stroke="#000000" stroke-linecap="round" stroke-linejoin="round" stroke-width="2"><path d="M3 7V5a2 2 0 0 1 2-2h2m10 0h2a2 2 0 0 1 2 2v2m0 10v2a2 2 0 0 1-2 2h-2M7 21H5a2 2 0 0 1-2-2v-2"/><circle cx="12" cy="12" r="3"/><path d="m16 16l-1.9-1.9"/></g></g><g transform="translate(27 28) scale(19.208333333333332 19.208333333333332) translate(0 0)"><g fill="none" stroke="#000000" stroke-linecap="round" stroke-linejoin="round" stroke-width="2"><path d="M3 7V5a2 2 0 0 1 2-2h2m10 0h2a2 2 0 0 1 2 2v2m0 10v2a2 2 0 0 1-2 2h-2M7 21H5a2 2 0 0 1-2-2v-2"/><circle cx="12" cy="12" r="3"/><path d="m16 16l-1.9-1.9"/></g></g><g transform="translate(26 28) scale(19.208333333333332 19.208333333333332) translate(0 0)"><g fill="none" stroke="#000000" stroke-linecap="round" stroke-linejoin="round" stroke-width="2"><path d="M3 7V5a2 2 0 0 1 2-2h2m10 0h2a2 2 0 0 1 2 2v2m0 10v2a2 2 0 0 1-2 2h-2M7 21H5a2 2 0 0 1-2-2v-2"/><circle cx="12" cy="12" r="3"/><path d="m16 16l-1.9-1.9"/></g></g><g transform="translate(25 28) scale(19.208333333333332 19.208333333333332) translate(0 0)"><g fill="none" stroke="#000000" stroke-linecap="round" stroke-linejoin="round" stroke-width="2"><path d="M3 7V5a2 2 0 0 1 2-2h2m10 0h2a2 2 0 0 1 2 2v2m0 10v2a2 2 0 0 1-2 2h-2M7 21H5a2 2 0 0 1-2-2v-2"/><circle cx="12" cy="12" r="3"/><path d="m16 16l-1.9-1.9"/></g></g><g transform="translate(24 27) scale(19.208333333333332 19.208333333333332) translate(0 0)"><g fill="none" stroke="#000000" stroke-linecap="round" stroke-linejoin="round" stroke-width="2"><path d="M3 7V5a2 2 0 0 1 2-2h2m10 0h2a2 2 0 0 1 2 2v2m0 10v2a2 2 0 0 1-2 2h-2M7 21H5a2 2 0 0 1-2-2v-2"/><circle cx="12" cy="12" r="3"/><path d="m16 16l-1.9-1.9"/></g></g><g transform="translate(24 26) scale(19.208333333333332 19.208333333333332) translate(0 0)"><g fill="none" stroke="#000000" stroke-linecap="round" stroke-linejoin="round" stroke-width="2"><path d="M3 7V5a2 2 0 0 1 2-2h2m10 0h2a2 2 0 0 1 2 2v2m0 10v2a2 2 0 0 1-2 2h-2M7 21H5a2 2 0 0 1-2-2v-2"/><circle cx="12" cy="12" r="3"/><path d="m16 16l-1.9-1.9"/></g></g><g transform="translate(24 25) scale(19.208333333333332 19.208333333333332) translate(0 0)"><g fill="none" stroke="#000000" stroke-linecap="round" stroke-linejoin="round" stroke-width="2"><path d="M3 7V5a2 2 0 0 1 2-2h2m10 0h2a2 2 0 0 1 2 2v2m0 10v2a2 2 0 0 1-2 2h-2M7 21H5a2 2 0 0 1-2-2v-2"/><circle cx="12" cy="12" r="3"/><path d="m16 16l-1.9-1.9"/></g></g><g transform="translate(25 24) scale(19.208333333333332 19.208333333333332) translate(0 0)"><g fill="none" stroke="#000000" stroke-linecap="round" stroke-linejoin="round" stroke-width="2"><path d="M3 7V5a2 2 0 0 1 2-2h2m10 0h2a2 2 0 0 1 2 2v2m0 10v2a2 2 0 0 1-2 2h-2M7 21H5a2 2 0 0 1-2-2v-2"/><circle cx="12" cy="12" r="3"/><path d="m16 16l-1.9-1.9"/></g></g><g transform="translate(26 24) scale(19.208333333333332 19.208333333333332) translate(0 0)"><g fill="none" stroke="#000000" stroke-linecap="round" stroke-linejoin="round" stroke-width="2"><path d="M3 7V5a2 2 0 0 1 2-2h2m10 0h2a2 2 0 0 1 2 2v2m0 10v2a2 2 0 0 1-2 2h-2M7 21H5a2 2 0 0 1-2-2v-2"/><circle cx="12" cy="12" r="3"/><path d="m16 16l-1.9-1.9"/></g></g><g transform="translate(27 24) scale(19.208333333333332 19.208333333333332) translate(0 0)"><g fill="none" stroke="#000000" stroke-linecap="round" stroke-linejoin="round" stroke-width="2"><path d="M3 7V5a2 2 0 0 1 2-2h2m10 0h2a2 2 0 0 1 2 2v2m0 10v2a2 2 0 0 1-2 2h-2M7 21H5a2 2 0 0 1-2-2v-2"/><circle cx="12" cy="12" r="3"/><path d="m16 16l-1.9-1.9"/></g></g><g transform="translate(28 25) scale(19.208333333333332 19.208333333333332) translate(0 0)"><g fill="none" stroke="#000000" stroke-linecap="round" stroke-linejoin="round" stroke-width="2"><path d="M3 7V5a2 2 0 0 1 2-2h2m10 0h2a2 2 0 0 1 2 2v2m0 10v2a2 2 0 0 1-2 2h-2M7 21H5a2 2 0 0 1-2-2v-2"/><circle cx="12" cy="12" r="3"/><path d="m16 16l-1.9-1.9"/></g></g><g transform="translate(27 26) scale(19.208333333333332 19.208333333333332) translate(0 0)"><g fill="none" stroke="#000000" stroke-linecap="round" stroke-linejoin="round" stroke-width="2"><path d="M3 7V5a2 2 0 0 1 2-2h2m10 0h2a2 2 0 0 1 2 2v2m0 10v2a2 2 0 0 1-2 2h-2M7 21H5a2 2 0 0 1-2-2v-2"/><circle cx="12" cy="12" r="3"/><path d="m16 16l-1.9-1.9"/></g></g><g transform="translate(27 27) scale(19.208333333333332 19.208333333333332) translate(0 0)"><g fill="none" stroke="#000000" stroke-linecap="round" stroke-linejoin="round" stroke-width="2"><path d="M3 7V5a2 2 0 0 1 2-2h2m10 0h2a2 2 0 0 1 2 2v2m0 10v2a2 2 0 0 1-2 2h-2M7 21H5a2 2 0 0 1-2-2v-2"/><circle cx="12" cy="12" r="3"/><path d="m16 16l-1.9-1.9"/></g></g><g transform="translate(26 27) scale(19.208333333333332 19.208333333333332) translate(0 0)"><g fill="none" stroke="#000000" stroke-linecap="round" stroke-linejoin="round" stroke-width="2"><path d="M3 7V5a2 2 0 0 1 2-2h2m10 0h2a2 2 0 0 1 2 2v2m0 10v2a2 2 0 0 1-2 2h-2M7 21H5a2 2 0 0 1-2-2v-2"/><circle cx="12" cy="12" r="3"/><path d="m16 16l-1.9-1.9"/></g></g><g transform="translate(25 26) scale(19.208333333333332 19.208333333333332) translate(0 0)"><g fill="none" stroke="#000000" stroke-linecap="round" stroke-linejoin="round" stroke-width="2"><path d="M3 7V5a2 2 0 0 1 2-2h2m10 0h2a2 2 0 0 1 2 2v2m0 10v2a2 2 0 0 1-2 2h-2M7 21H5a2 2 0 0 1-2-2v-2"/><circle cx="12" cy="12" r="3"/><path d="m16 16l-1.9-1.9"/></g></g><g transform="translate(25 25) scale(19.208333333333332 19.208333333333332) translate(0 0)"><g fill="none" stroke="#000000" stroke-linecap="round" stroke-linejoin="round" stroke-width="2"><path d="M3 7V5a2 2 0 0 1 2-2h2m10 0h2a2 2 0 0 1 2 2v2m0 10v2a2 2 0 0 1-2 2h-2M7 21H5a2 2 0 0 1-2-2v-2"/><circle cx="12" cy="12" r="3"/><path d="m16 16l-1.9-1.9"/></g></g><g transform="translate(26 25) scale(19.208333333333332 19.208333333333332) translate(0 0)"><g fill="none" stroke="#000000" stroke-linecap="round" stroke-linejoin="round" stroke-width="2"><path d="M3 7V5a2 2 0 0 1 2-2h2m10 0h2a2 2 0 0 1 2 2v2m0 10v2a2 2 0 0 1-2 2h-2M7 21H5a2 2 0 0 1-2-2v-2"/><circle cx="12" cy="12" r="3"/><path d="m16 16l-1.9-1.9"/></g></g><g transform="translate(27 25) scale(19.208333333333332 19.208333333333332) translate(0 0)"><g fill="none" stroke="#000000" stroke-linecap="round" stroke-linejoin="round" stroke-width="2"><path d="M3 7V5a2 2 0 0 1 2-2h2m10 0h2a2 2 0 0 1 2 2v2m0 10v2a2 2 0 0 1-2 2h-2M7 21H5a2 2 0 0 1-2-2v-2"/><circle cx="12" cy="12" r="3"/><path d="m16 16l-1.9-1.9"/></g></g>
      <g transform="translate(26 26) scale(19.208333333333332 19.208333333333332) translate(0 0)"><g fill="none" stroke="#FFFFFF" stroke-linecap="round" stroke-linejoin="round" stroke-width="2"><path d="M3 7V5a2 2 0 0 1 2-2h2m10 0h2a2 2 0 0 1 2 2v2m0 10v2a2 2 0 0 1-2 2h-2M7 21H5a2 2 0 0 1-2-2v-2"/><circle cx="12" cy="12" r="3"/><path d="m16 16l-1.9-1.9"/></g></g>
    </g>
  </g>
</svg>